<mxfile host="app.diagrams.net" modified="2023-11-29T13:31:28.479Z" agent="Mozilla/5.0 (Windows NT 10.0; Win64; x64) AppleWebKit/537.36 (KHTML, like Gecko) Chrome/119.0.0.0 Safari/537.36" etag="W6m2CF0hL9vJDuHD_rMk" version="22.1.4" type="device">
  <diagram id="prtHgNgQTEPvFCAcTncT" name="Page-1">
    <mxGraphModel dx="794" dy="424" grid="1" gridSize="10" guides="1" tooltips="1" connect="1" arrows="1" fold="1" page="1" pageScale="1" pageWidth="827" pageHeight="1169" math="0" shadow="0">
      <root>
        <mxCell id="0" />
        <mxCell id="1" parent="0" />
        <mxCell id="MhJOzCCyMxHzRr4b-cLV-1" value="main.go&amp;nbsp;" style="ellipse;whiteSpace=wrap;html=1;" vertex="1" parent="1">
          <mxGeometry x="354" y="60" width="120" height="50" as="geometry" />
        </mxCell>
        <mxCell id="MhJOzCCyMxHzRr4b-cLV-2" value="DealerHandler" style="rounded=1;whiteSpace=wrap;html=1;" vertex="1" parent="1">
          <mxGeometry x="190" y="190" width="120" height="60" as="geometry" />
        </mxCell>
        <mxCell id="MhJOzCCyMxHzRr4b-cLV-3" value="CusotmerHandler" style="rounded=1;whiteSpace=wrap;html=1;" vertex="1" parent="1">
          <mxGeometry x="60" y="190" width="120" height="60" as="geometry" />
        </mxCell>
        <mxCell id="MhJOzCCyMxHzRr4b-cLV-4" value="TechnicianHandler" style="rounded=1;whiteSpace=wrap;html=1;" vertex="1" parent="1">
          <mxGeometry x="320" y="190" width="120" height="60" as="geometry" />
        </mxCell>
        <mxCell id="MhJOzCCyMxHzRr4b-cLV-9" value="" style="endArrow=none;html=1;rounded=0;entryX=0.3;entryY=0.96;entryDx=0;entryDy=0;entryPerimeter=0;" edge="1" parent="1" source="MhJOzCCyMxHzRr4b-cLV-2" target="MhJOzCCyMxHzRr4b-cLV-1">
          <mxGeometry width="50" height="50" relative="1" as="geometry">
            <mxPoint x="130" y="200" as="sourcePoint" />
            <mxPoint x="380" y="110" as="targetPoint" />
            <Array as="points" />
          </mxGeometry>
        </mxCell>
        <mxCell id="MhJOzCCyMxHzRr4b-cLV-10" value="" style="endArrow=none;html=1;rounded=0;exitX=0.5;exitY=0;exitDx=0;exitDy=0;entryX=0.411;entryY=1.013;entryDx=0;entryDy=0;entryPerimeter=0;" edge="1" parent="1" source="MhJOzCCyMxHzRr4b-cLV-4" target="MhJOzCCyMxHzRr4b-cLV-1">
          <mxGeometry width="50" height="50" relative="1" as="geometry">
            <mxPoint x="295" y="200" as="sourcePoint" />
            <mxPoint x="390" y="120" as="targetPoint" />
            <Array as="points" />
          </mxGeometry>
        </mxCell>
        <mxCell id="MhJOzCCyMxHzRr4b-cLV-12" value="" style="endArrow=none;html=1;rounded=0;exitX=0.5;exitY=0;exitDx=0;exitDy=0;entryX=0;entryY=1;entryDx=0;entryDy=0;" edge="1" parent="1" source="MhJOzCCyMxHzRr4b-cLV-3" target="MhJOzCCyMxHzRr4b-cLV-1">
          <mxGeometry width="50" height="50" relative="1" as="geometry">
            <mxPoint x="120" y="190" as="sourcePoint" />
            <mxPoint x="240" y="147.41935483870964" as="targetPoint" />
            <Array as="points" />
          </mxGeometry>
        </mxCell>
        <mxCell id="MhJOzCCyMxHzRr4b-cLV-13" value="customer&lt;br&gt;" style="text;html=1;align=center;verticalAlign=middle;resizable=0;points=[];autosize=1;strokeColor=none;fillColor=none;rotation=-15;" vertex="1" parent="1">
          <mxGeometry x="200" y="110" width="70" height="30" as="geometry" />
        </mxCell>
        <mxCell id="MhJOzCCyMxHzRr4b-cLV-14" value="dealer&lt;br&gt;" style="text;html=1;align=center;verticalAlign=middle;resizable=0;points=[];autosize=1;strokeColor=none;fillColor=none;rotation=-15;" vertex="1" parent="1">
          <mxGeometry x="285" y="130" width="60" height="30" as="geometry" />
        </mxCell>
        <mxCell id="MhJOzCCyMxHzRr4b-cLV-15" value="technician&lt;br&gt;" style="text;html=1;align=center;verticalAlign=middle;resizable=0;points=[];autosize=1;strokeColor=none;fillColor=none;rotation=-15;" vertex="1" parent="1">
          <mxGeometry x="330" y="140" width="80" height="30" as="geometry" />
        </mxCell>
        <mxCell id="MhJOzCCyMxHzRr4b-cLV-16" value="CustomerController" style="rounded=1;whiteSpace=wrap;html=1;" vertex="1" parent="1">
          <mxGeometry x="50" y="320" width="120" height="60" as="geometry" />
        </mxCell>
        <mxCell id="MhJOzCCyMxHzRr4b-cLV-17" value="" style="endArrow=none;html=1;rounded=0;exitX=0.5;exitY=0;exitDx=0;exitDy=0;" edge="1" parent="1" source="MhJOzCCyMxHzRr4b-cLV-16">
          <mxGeometry width="50" height="50" relative="1" as="geometry">
            <mxPoint x="70" y="300" as="sourcePoint" />
            <mxPoint x="110" y="250" as="targetPoint" />
          </mxGeometry>
        </mxCell>
        <mxCell id="MhJOzCCyMxHzRr4b-cLV-18" style="edgeStyle=orthogonalEdgeStyle;rounded=0;orthogonalLoop=1;jettySize=auto;html=1;exitX=0.5;exitY=1;exitDx=0;exitDy=0;entryX=0.411;entryY=1.033;entryDx=0;entryDy=0;entryPerimeter=0;" edge="1" parent="1" source="MhJOzCCyMxHzRr4b-cLV-3" target="MhJOzCCyMxHzRr4b-cLV-3">
          <mxGeometry relative="1" as="geometry" />
        </mxCell>
        <mxCell id="MhJOzCCyMxHzRr4b-cLV-19" value="TechnicainController&lt;br&gt;" style="rounded=1;whiteSpace=wrap;html=1;" vertex="1" parent="1">
          <mxGeometry x="320" y="320" width="120" height="60" as="geometry" />
        </mxCell>
        <mxCell id="MhJOzCCyMxHzRr4b-cLV-20" value="DealerController" style="rounded=1;whiteSpace=wrap;html=1;" vertex="1" parent="1">
          <mxGeometry x="190" y="320" width="120" height="60" as="geometry" />
        </mxCell>
        <mxCell id="MhJOzCCyMxHzRr4b-cLV-24" value="" style="endArrow=none;html=1;rounded=0;exitX=0.5;exitY=0;exitDx=0;exitDy=0;" edge="1" parent="1" source="MhJOzCCyMxHzRr4b-cLV-20">
          <mxGeometry width="50" height="50" relative="1" as="geometry">
            <mxPoint x="200" y="300" as="sourcePoint" />
            <mxPoint x="250" y="250" as="targetPoint" />
          </mxGeometry>
        </mxCell>
        <mxCell id="MhJOzCCyMxHzRr4b-cLV-26" value="" style="endArrow=none;html=1;rounded=0;exitX=0.5;exitY=0;exitDx=0;exitDy=0;" edge="1" parent="1">
          <mxGeometry width="50" height="50" relative="1" as="geometry">
            <mxPoint x="379.5" y="320" as="sourcePoint" />
            <mxPoint x="379.5" y="250" as="targetPoint" />
          </mxGeometry>
        </mxCell>
        <mxCell id="MhJOzCCyMxHzRr4b-cLV-27" value="" style="rounded=1;whiteSpace=wrap;html=1;" vertex="1" parent="1">
          <mxGeometry x="538" y="30" width="180" height="190" as="geometry" />
        </mxCell>
        <mxCell id="MhJOzCCyMxHzRr4b-cLV-28" value="ReportByDate" style="rounded=1;whiteSpace=wrap;html=1;" vertex="1" parent="1">
          <mxGeometry x="560" y="60" width="136" height="60" as="geometry" />
        </mxCell>
        <mxCell id="MhJOzCCyMxHzRr4b-cLV-29" value="NotificationReport" style="rounded=1;whiteSpace=wrap;html=1;rotation=0;" vertex="1" parent="1">
          <mxGeometry x="560" y="140" width="136" height="60" as="geometry" />
        </mxCell>
        <mxCell id="MhJOzCCyMxHzRr4b-cLV-30" value="Reports&lt;br&gt;" style="text;html=1;align=center;verticalAlign=middle;resizable=0;points=[];autosize=1;strokeColor=none;fillColor=none;" vertex="1" parent="1">
          <mxGeometry x="538" y="30" width="70" height="30" as="geometry" />
        </mxCell>
        <mxCell id="MhJOzCCyMxHzRr4b-cLV-31" value="" style="endArrow=none;html=1;rounded=0;" edge="1" parent="1" target="MhJOzCCyMxHzRr4b-cLV-28">
          <mxGeometry width="50" height="50" relative="1" as="geometry">
            <mxPoint x="474" y="90" as="sourcePoint" />
            <mxPoint x="524" y="40" as="targetPoint" />
          </mxGeometry>
        </mxCell>
        <mxCell id="MhJOzCCyMxHzRr4b-cLV-32" value="reportbydate" style="edgeLabel;html=1;align=center;verticalAlign=middle;resizable=0;points=[];" vertex="1" connectable="0" parent="MhJOzCCyMxHzRr4b-cLV-31">
          <mxGeometry x="0.1783" y="3" relative="1" as="geometry">
            <mxPoint as="offset" />
          </mxGeometry>
        </mxCell>
        <mxCell id="MhJOzCCyMxHzRr4b-cLV-33" value="" style="endArrow=none;html=1;rounded=0;exitX=1;exitY=1;exitDx=0;exitDy=0;entryX=0;entryY=0.5;entryDx=0;entryDy=0;" edge="1" parent="1" source="MhJOzCCyMxHzRr4b-cLV-1" target="MhJOzCCyMxHzRr4b-cLV-29">
          <mxGeometry width="50" height="50" relative="1" as="geometry">
            <mxPoint x="510" y="220" as="sourcePoint" />
            <mxPoint x="570" y="170" as="targetPoint" />
          </mxGeometry>
        </mxCell>
        <mxCell id="MhJOzCCyMxHzRr4b-cLV-34" value="notificationreport&lt;br&gt;" style="text;html=1;align=center;verticalAlign=middle;resizable=0;points=[];autosize=1;strokeColor=none;fillColor=none;" vertex="1" parent="1">
          <mxGeometry x="435" y="110" width="110" height="30" as="geometry" />
        </mxCell>
        <mxCell id="MhJOzCCyMxHzRr4b-cLV-35" value="&lt;p style=&quot;line-height: 140%;&quot;&gt;&lt;b&gt;&lt;font style=&quot;font-size: 14px;&quot;&gt;EmailService&lt;/font&gt;&lt;/b&gt;&lt;/p&gt;" style="ellipse;whiteSpace=wrap;html=1;" vertex="1" parent="1">
          <mxGeometry x="500" y="260" width="250" height="160" as="geometry" />
        </mxCell>
        <mxCell id="MhJOzCCyMxHzRr4b-cLV-36" value="" style="endArrow=none;html=1;rounded=0;entryX=0.561;entryY=0.96;entryDx=0;entryDy=0;entryPerimeter=0;" edge="1" parent="1" source="MhJOzCCyMxHzRr4b-cLV-37" target="MhJOzCCyMxHzRr4b-cLV-1">
          <mxGeometry width="50" height="50" relative="1" as="geometry">
            <mxPoint x="530" y="290" as="sourcePoint" />
            <mxPoint x="580" y="240" as="targetPoint" />
          </mxGeometry>
        </mxCell>
        <mxCell id="MhJOzCCyMxHzRr4b-cLV-39" value="" style="endArrow=none;html=1;rounded=0;entryX=0.561;entryY=0.96;entryDx=0;entryDy=0;entryPerimeter=0;" edge="1" parent="1" target="MhJOzCCyMxHzRr4b-cLV-37">
          <mxGeometry width="50" height="50" relative="1" as="geometry">
            <mxPoint x="530" y="290" as="sourcePoint" />
            <mxPoint x="421" y="108" as="targetPoint" />
          </mxGeometry>
        </mxCell>
        <mxCell id="MhJOzCCyMxHzRr4b-cLV-37" value="email" style="text;html=1;align=center;verticalAlign=middle;resizable=0;points=[];autosize=1;strokeColor=none;fillColor=none;" vertex="1" parent="1">
          <mxGeometry x="488" y="230" width="50" height="30" as="geometry" />
        </mxCell>
      </root>
    </mxGraphModel>
  </diagram>
</mxfile>
